<?xml version="1.0" encoding="UTF-8"?>
<svg width="32px" height="32px" viewBox="0 0 32 32" version="1.1" xmlns="http://www.w3.org/2000/svg" xmlns:xlink="http://www.w3.org/1999/xlink">
    <title>Brush@scalable</title>
    <defs>
        <path d="M5.02967579,20.8582746 C6.24999577,20.3901533 7.51697939,20.5897156 8.83062666,21.4569615 C10.1442739,22.3242075 10.9350843,23.5048328 11.2030579,24.9988374 C11.3390693,25.9497982 11.0854052,26.8081126 10.4420655,27.5737806 C9.79872583,28.3394486 8.56016699,29.1769844 6.72638897,30.0863877 C5.36124385,30.6782247 3.91519435,31.0532923 2.38824047,31.2115906 C0.0978096451,31.4490381 -0.0243113873,30.9269615 0.00285177171,30.7196031 C0.0300149307,30.5122447 1.13387841,29.5020325 1.70273899,28.1530953 C2.08197938,27.2538038 2.31047988,26.3744023 2.38824047,25.5148906 C2.45885913,24.3340488 2.72638662,23.3407621 3.19082294,22.5350304 C3.65525926,21.7292986 4.2682102,21.1703801 5.02967579,20.8582746 Z M20.6187093,7.14447183 C25.8840527,2.94654381 31.0552391,-0.648835764 31.8543898,0.0991390709 C32.9727785,1.14590864 25.2060328,10.9539615 19.4831588,17.200019 C15.4927866,21.5551898 13.0885285,23.1555448 12.8876286,23.1555448 C12.6308044,23.1555448 12.4141067,21.9073647 10.8970527,20.4841053 C9.37999882,19.060846 8.53148054,19.1793491 8.46363854,18.8005019 C8.39579655,18.4216548 9.57052937,16.6551806 13.5402896,13.1066715 C15.4595838,11.3910431 17.7460162,9.45342487 20.0441404,7.60463802 Z" id="path-1"></path>
    </defs>
    <g id="Brush" stroke="none" stroke-width="1" fill="none" fill-rule="evenodd">
        <g id="Group" transform="translate(16.000000, 16.000000) rotate(180.000000) translate(-16.000000, -16.000000) translate(-0.000000, 0.000000)">
            <g id="White" transform="translate(-0.000000, -0.000000)">
                <mask id="mask-2" fill="white">
                    <use xlink:href="#path-1"></use>
                </mask>
                <use id="Mask" fill="#FFFFFF" xlink:href="#path-1"></use>
                <g mask="url(#mask-2)" id="Rectangle">
                    <rect fill="#000000" x="0" y="0" width="32" height="32"></rect>
                    <rect fill="#FFFFFF" x="0" y="0" width="32" height="32"></rect>
                </g>
            </g>
        </g>
    </g>
</svg>